<svg width="256" height="131" viewBox="0 0 256 131" fill="none" xmlns="http://www.w3.org/2000/svg">
<path d="M19.4651 67.8843C20.0232 68.8611 20.8605 70.3265 21.9767 72.2802C23.1628 74.2342 24.4186 76.3975 25.7442 78.7698C27.0698 81.1424 28.4302 83.5846 29.8255 86.0968C31.221 88.6088 32.4417 90.9117 33.4884 93.005C34.535 95.0983 35.3372 96.8427 35.8954 98.2384C36.5232 99.6339 36.7324 100.402 36.5232 100.541C36.1743 100.75 35.6513 100.855 34.9535 100.855C34.2558 100.786 33.5232 100.681 32.7558 100.541C31.9884 100.332 31.2558 100.088 30.5581 99.8084C29.9303 99.4594 29.4767 99.1456 29.1977 98.8664C26.8256 95.6566 24.6977 92.6909 22.8139 89.9697C21 87.2481 19.3953 84.8756 18 82.8519C16.3953 80.5493 14.9651 78.4208 13.7093 76.4671C13.5 79.7469 13.2907 82.8519 13.0814 85.7827C12.8721 88.7136 12.6628 91.3303 12.4535 93.6329C12.2442 95.8659 12 97.6802 11.7209 99.0757C11.5116 100.402 11.3023 101.099 11.093 101.169C10.5349 101.239 9.94185 101.03 9.31396 100.541C8.68605 99.9828 8.09302 99.3201 7.53488 98.5525C6.97674 97.715 6.45349 96.8778 5.96512 96.0403C5.5465 95.1332 5.30232 94.3656 5.23255 93.7377C4.81396 87.3878 4.46511 81.7006 4.18604 76.6764C3.97675 71.5826 3.76745 67.0816 3.55813 63.1742C3.41861 59.2662 3.31395 55.882 3.24417 53.0211C3.24417 50.0903 3.24417 47.6132 3.24417 45.5895C3.24417 40.7747 3.38372 37.4601 3.66279 35.646C3.94186 34.2503 4.56977 32.9245 5.5465 31.6684C6.59301 30.3426 7.70929 29.1913 8.89534 28.2144C10.0814 27.2375 11.1977 26.5047 12.2442 26.0163C13.2907 25.5278 13.9884 25.3883 14.3372 25.5976C14.6163 25.807 14.7907 27.0281 14.8605 29.261C14.9302 31.4939 14.9302 34.3551 14.8605 37.8439C14.8605 41.2633 14.7907 45.101 14.6512 49.3576C14.5116 53.6142 14.3721 57.8708 14.2326 62.1274C15.4884 60.2434 16.7093 58.3594 17.8953 56.4753C19.0814 54.5214 20.1977 52.777 21.2442 51.2416C22.2907 49.6368 23.1977 48.3111 23.9651 47.2643C24.8023 46.2174 25.4302 45.5895 25.8488 45.3802C26.3372 45.101 27.1047 44.8917 28.1512 44.752C29.2674 44.5427 30.3836 44.4034 31.4999 44.3334C32.6162 44.2638 33.628 44.2986 34.535 44.4382C35.5117 44.5779 36.1046 44.822 36.3139 45.1709C36.5232 45.3802 36.1395 46.2526 35.1628 47.7877C34.1861 49.2531 32.8954 51.0671 31.2906 53.2304C29.6861 55.3937 27.8372 57.766 25.7442 60.3479C23.6512 62.9298 21.5581 65.442 19.4651 67.8843Z" fill="#28CD2F"/>
<path d="M43.1976 107.449C43.058 107.101 42.9883 105.844 42.9883 103.681C42.9883 101.518 42.9883 98.7966 42.9883 95.5169C43.058 92.2374 43.128 88.5739 43.1976 84.5265C43.3372 80.4096 43.442 76.2578 43.5117 72.0708C43.6513 67.8142 43.7906 63.6973 43.9302 59.7199C44.0698 55.6726 44.1743 52.079 44.2442 48.9389C44.3838 45.7988 44.4883 43.2517 44.5583 41.298C44.6279 39.2744 44.6976 38.1927 44.7675 38.0531C44.8372 37.7741 45.1512 37.0763 45.7094 35.9598C46.2675 34.8433 46.8953 33.692 47.5931 32.5059C48.3605 31.2497 49.1279 30.1681 49.8953 29.261C50.6627 28.2841 51.3256 27.8305 51.8838 27.9003C52.093 27.9701 52.2674 29.3657 52.4071 32.087C52.6163 34.7388 52.7908 38.1579 52.9301 42.3448C53.1396 46.5315 53.2789 51.1719 53.3489 56.2657C53.4885 61.2898 53.593 66.2095 53.6627 71.0243C53.8023 75.7692 53.907 80.0955 53.9767 84.0031C54.0464 87.8411 54.1163 90.6672 54.186 92.4815C56.4185 92.6908 58.6511 92.8653 60.8836 93.0049C63.1861 93.1446 65.2443 93.319 67.058 93.5283C68.872 93.6677 70.3372 93.8073 71.4535 93.9469C72.6394 94.0866 73.2675 94.1911 73.3371 94.261C73.5464 94.54 73.8256 95.203 74.1745 96.2496C74.593 97.2264 74.9767 98.308 75.3256 99.4945C75.6745 100.611 75.9186 101.657 76.0582 102.635C76.2675 103.611 76.2326 104.205 75.9534 104.414C67.9302 105.879 61.721 106.856 57.3255 107.345C52.9301 107.833 49.686 108.077 47.5931 108.077C45.1512 108.077 43.6861 107.868 43.1976 107.449ZM103.372 49.1482C103.791 49.6368 104.174 50.1602 104.523 50.7184C104.872 51.2067 105.186 51.9046 105.465 52.8117C105.744 53.649 105.954 54.7654 106.093 56.1612C106.302 57.5566 106.407 59.371 106.407 61.6039C106.407 65.1627 106.302 68.7565 106.093 72.3849C105.954 75.9437 105.814 79.0838 105.674 81.8053C105.605 84.2476 105.535 86.5154 105.465 88.6087C105.395 90.702 105.326 92.5512 105.256 94.1562C105.186 95.6913 105.081 96.9126 104.942 97.8198C104.872 98.7269 104.802 99.2152 104.733 99.2852C104.453 99.4945 104 99.4245 103.372 99.0756C102.814 98.657 102.186 98.1336 101.489 97.5057C100.86 96.8778 100.267 96.2147 99.7093 95.5169C99.1512 94.8193 98.8023 94.261 98.6627 93.8421C98.6627 93.4932 98.5582 92.4815 98.3489 90.8068C96.6745 91.7837 94.8257 92.4815 92.8024 92.9001C90.7791 93.2491 88.7558 93.3887 86.7325 93.319C84.7792 93.1794 82.9651 92.7956 81.2907 92.1674C79.6163 91.5395 78.3604 90.702 77.5233 89.6555C77.1745 89.2369 76.8604 88.6087 76.5815 87.7715C76.3719 86.934 76.1627 85.992 75.9534 84.9452C75.8141 83.8287 75.6745 82.6774 75.5349 81.4912C75.3953 80.2351 75.2908 79.0838 75.2208 78.037C75.0815 75.3158 75.4301 72.978 76.2674 71.0243C77.1045 69.0007 78.6396 67.5004 80.8722 66.5236C81.8488 66.1047 83.1396 65.8954 84.7443 65.8954C86.4184 65.8257 88.058 65.8954 89.6628 66.1047C91.3372 66.2443 92.8372 66.4536 94.1627 66.7329C95.4883 66.9422 96.3257 67.1166 96.6745 67.256C96.3953 63.6973 96.186 60.6271 96.0464 58.0452C95.9071 55.3936 95.6279 53.6838 95.2094 52.9162C94.8605 52.428 94.442 51.9394 93.9535 51.4508C93.535 51.1022 92.9768 50.7184 92.2791 50.2995C91.5813 49.8809 90.7443 49.5668 89.7673 49.3575C88.9999 49.2179 88.3024 49.532 87.6743 50.2995C87.1162 50.9974 86.5929 52.2535 86.1047 54.0679C85.6862 55.8122 85.4418 58.4986 85.3721 62.1273C82.9303 62.197 81.0466 62.197 79.7208 62.1273C78.4652 61.9877 77.5233 61.8481 76.8952 61.7087C76.1278 61.5691 75.6745 61.3946 75.5349 61.1853C75.3953 60.9061 75.4652 59.8944 75.7441 58.1497C76.0234 56.3356 76.4071 54.3817 76.8952 52.2883C77.4534 50.195 78.0815 48.2062 78.7789 46.3222C79.5466 44.4382 80.3489 43.2517 81.1859 42.7635C82.8603 41.7866 84.8488 41.4377 87.151 41.7166C89.5232 41.9959 91.8257 42.589 94.0583 43.4962C96.2908 44.4033 98.279 45.415 100.023 46.5315C101.767 47.648 102.884 48.5203 103.372 49.1482ZM96.8838 79.7117C96.8838 79.3628 96.9186 78.9093 96.9883 78.3511C97.0582 77.7232 97.0931 77.095 97.0931 76.4671C97.0931 75.8392 97.0582 75.2458 96.9883 74.6876C96.9883 74.1293 96.9186 73.7107 96.779 73.4317C96.5697 73.0128 95.9419 72.6639 94.8953 72.3849C93.9186 72.106 92.8024 71.9315 91.5465 71.8615C90.2906 71.7219 89.1047 71.6871 87.9884 71.757C86.8721 71.757 86.1047 71.8964 85.6862 72.1756C85.128 72.5246 84.7092 73.0128 84.4303 73.641C84.221 74.269 84.0814 75.2458 84.0117 76.5719C84.0117 77.1998 84.0466 77.8625 84.1162 78.5604C84.1859 79.2583 84.2558 79.9561 84.3255 80.6537C84.4651 81.2819 84.6047 81.8402 84.7443 82.3284C84.9536 82.817 85.1629 83.1311 85.3721 83.2707C85.8606 83.6194 86.6977 83.9335 87.8836 84.2127C89.1395 84.422 90.3954 84.4917 91.6513 84.422C92.9069 84.2824 94.0583 83.8638 95.1046 83.1659C96.1512 82.4681 96.7442 81.3167 96.8838 79.7117ZM142.826 60.3478C142.826 61.4643 142.686 63.0693 142.407 65.1627C142.198 67.256 141.884 69.5589 141.465 72.0708C141.046 74.5131 140.593 77.0601 140.105 79.7117C139.686 82.2936 139.232 84.6662 138.744 86.8295C138.326 88.9925 137.942 90.8068 137.593 92.2722C137.314 93.7376 137.139 94.54 137.07 94.6796C136.93 94.8889 136.547 95.0286 135.919 95.0982C135.361 95.0982 134.698 95.0286 133.93 94.8889C133.233 94.7493 132.57 94.54 131.942 94.261C131.384 93.9818 131.035 93.6328 130.895 93.2142C130.826 92.935 130.791 91.9581 130.791 90.2834C130.86 88.6087 130.93 86.6202 131 84.3172C131.14 81.9447 131.279 79.4327 131.418 76.7812C131.558 74.0597 131.698 71.5474 131.837 69.2448C132.047 66.8722 132.186 64.8486 132.256 63.1741C132.395 61.4991 132.465 60.4875 132.465 60.1385C132.465 58.8824 132.326 57.6963 132.047 56.5798C131.837 55.3936 131.558 54.3817 131.209 53.5445C130.86 52.7069 130.442 52.079 129.953 51.6604C129.535 51.1719 129.151 50.9974 128.802 51.137C127.895 51.2767 127.128 51.5208 126.5 51.8697C125.872 52.1487 125.349 52.4628 124.93 52.8117C124.442 53.2304 124.058 53.7189 123.779 54.2772C123.709 54.4165 123.57 54.8354 123.36 55.533C123.221 56.2308 123.151 57.0332 123.151 57.9404C123.151 58.2197 123.151 59.2313 123.151 60.976C123.151 62.6507 123.116 64.6744 123.046 67.0467C123.046 69.4193 123.012 72.0012 122.942 74.7924C122.942 77.5139 122.907 80.0606 122.837 82.4332C122.837 84.7359 122.802 86.7247 122.733 88.3994C122.663 90.0741 122.593 91.0161 122.523 91.2254C122.384 91.644 122.035 92.2374 121.477 93.0049C120.919 93.7028 120.291 94.3655 119.593 94.9934C118.895 95.6217 118.233 96.1099 117.605 96.4589C116.977 96.7381 116.558 96.6685 116.349 96.2496C116.139 96.0403 115.93 95.0286 115.721 93.2142C115.512 91.3302 115.268 89.0624 114.988 86.4106C114.779 83.6893 114.535 80.7585 114.256 77.6184C113.977 74.4086 113.732 71.3381 113.523 68.4076C113.314 65.4768 113.139 62.8252 113 60.4526C112.861 58.08 112.756 56.3705 112.686 55.3237C112.616 53.8583 112.547 52.2187 112.477 50.4043C112.407 48.5203 112.337 46.7756 112.267 45.1709C112.267 43.4962 112.267 42.0656 112.267 40.8794C112.337 39.6233 112.477 38.8558 112.686 38.5765C112.825 38.2975 113.279 38.2276 114.047 38.3672C114.884 38.5068 115.756 38.7858 116.663 39.2047C117.639 39.5537 118.546 40.0071 119.384 40.5653C120.221 41.0539 120.779 41.5422 121.058 42.0307C121.198 42.4494 121.372 42.9379 121.582 43.4962C121.791 43.9844 121.965 44.8219 122.105 46.0081C123.291 45.3105 124.582 44.6823 125.977 44.1241C127.372 43.4962 128.733 43.0424 130.058 42.7635C131.454 42.4145 132.779 42.3097 134.035 42.4494C135.291 42.519 136.407 42.868 137.384 43.4962C138.012 43.9844 138.639 44.8219 139.268 46.0081C139.965 47.1945 140.558 48.59 141.046 50.195C141.605 51.7998 142.023 53.5096 142.302 55.3237C142.651 57.0684 142.826 58.7431 142.826 60.3478ZM175.477 107.554C175.337 107.973 174.919 108.636 174.221 109.543C173.523 110.45 172.686 111.392 171.709 112.369C170.733 113.346 169.756 114.218 168.779 114.986C167.802 115.753 167 116.242 166.372 116.451C164.977 116.87 163.477 116.765 161.872 116.137C160.337 115.579 158.837 114.811 157.372 113.834C155.977 112.857 154.756 111.845 153.709 110.799C152.663 109.822 152 109.089 151.721 108.601C151.512 108.112 151.302 107.449 151.093 106.612C150.953 105.774 150.849 104.937 150.779 104.1C150.709 103.263 150.709 102.565 150.779 102.006C150.919 101.379 151.163 101.064 151.512 101.064C151.86 101.064 152.663 101.413 153.919 102.111C155.244 102.739 156.605 103.402 158 104.1C159.465 104.798 160.825 105.356 162.081 105.774C163.337 106.193 164.105 106.123 164.384 105.565C164.663 105.077 164.907 103.716 165.116 101.483C165.395 99.1804 165.709 96.3892 166.058 93.1094C165.919 93.1094 165.779 93.1446 165.639 93.2142C165.57 93.2142 165.465 93.2142 165.326 93.2142C164.698 93.4235 163.826 93.5283 162.709 93.5283C161.593 93.5283 160.407 93.4584 159.151 93.319C157.965 93.1794 156.779 92.935 155.593 92.5863C154.477 92.1674 153.57 91.644 152.872 91.0161C152.593 90.7371 152.279 90.3182 151.93 89.76C151.651 89.1321 151.442 88.3297 151.302 87.3526C151.093 86.934 150.744 85.7478 150.256 83.7938C149.767 81.7702 149.279 79.5024 148.791 76.9905C148.302 74.4086 147.849 71.8267 147.43 69.2448C147.082 66.6629 146.977 64.6044 147.116 63.0693C147.186 61.5343 147.465 59.9641 147.953 58.3593C148.442 56.6846 149 55.1144 149.628 53.649C150.326 52.1835 151.058 50.9277 151.826 49.8809C152.593 48.7644 153.36 47.9969 154.128 47.5783C155.802 46.7408 157.895 46.5663 160.407 47.0549C162.919 47.5432 165.605 48.4855 168.465 49.8809C168.535 49.1831 168.849 48.4155 169.407 47.5783C169.965 46.7408 170.593 46.0081 171.291 45.3802C172.058 44.6823 172.826 44.1937 173.593 43.9148C174.36 43.5658 174.953 43.531 175.372 43.81C175.581 43.9496 175.756 44.9264 175.895 46.7408C176.035 48.4855 176.14 50.7881 176.209 53.649C176.349 56.4402 176.419 59.6502 176.419 63.2786C176.488 66.8374 176.488 70.5357 176.419 74.3737C176.419 78.1418 176.384 81.875 176.314 85.5734C176.314 89.2717 176.244 92.656 176.105 95.7262C176.035 98.7966 175.93 101.379 175.791 103.472C175.721 105.565 175.616 106.926 175.477 107.554ZM168.151 57.8359C167.733 57.5566 167.244 57.2777 166.686 56.9984C166.198 56.7194 165.639 56.4402 165.012 56.1612C164.384 55.8819 163.686 55.6378 162.919 55.4285C162.57 55.2888 162.081 55.4285 161.454 55.8471C160.895 56.2657 160.302 56.8591 159.674 57.6266C159.116 58.3941 158.628 59.3361 158.209 60.4526C157.791 61.4991 157.581 62.6156 157.581 63.8021C157.581 63.9417 157.616 64.6044 157.686 65.7909C157.756 66.977 157.86 68.4076 158 70.0823C158.14 71.757 158.279 73.5711 158.419 75.5251C158.558 77.4788 158.698 79.2931 158.837 80.9678C159.047 82.6425 159.221 84.0731 159.361 85.2593C159.5 86.3757 159.605 86.9688 159.674 87.0388C159.954 87.3177 160.337 87.4574 160.825 87.4574C161.384 87.4574 161.907 87.3877 162.395 87.2481C162.954 87.1084 163.442 86.934 163.861 86.7247C164.279 86.5154 164.593 86.3409 164.802 86.2013C165.709 85.5734 166.268 84.3521 166.477 82.538C166.616 82.3984 166.686 82.0146 166.686 81.3864C166.895 76.7812 167.105 72.6291 167.314 68.9307C167.523 65.1627 167.802 61.4643 168.151 57.8359Z" fill="white"/>
<path d="M208.757 66.8577C209.287 66.6347 207.698 68.6235 202.226 67.6106C199.578 66.5046 197.989 65.7983 198.519 64.739C198.643 64.4907 202.234 66.0502 202.932 66.1556C208.757 67.0345 208.757 63.3474 208.757 66.8577Z" fill="#28CD2F"/>
<path d="M213.434 58.485C213.395 57.9115 213.877 62.3489 211.758 64.739C209.855 66.8868 209.463 66.8579 207.403 67.2438C205.58 67.2438 209.491 64.3064 209.816 63.6797C212.534 58.4519 208.228 58.485 213.434 58.485Z" fill="#28CD2F"/>
<path d="M208.051 50.7911C207.55 50.5107 211.038 50.7349 212.641 55.5583C212.961 56.5206 214.406 59.7956 212.194 60.642C210.491 61.2938 210.516 57.5114 210.169 56.8963C207.279 51.762 205.204 55.1514 208.051 50.7911Z" fill="#28CD2F"/>
<path d="M199.401 49.7318C198.695 49.9083 202.049 48.1428 206.177 49.786C207.119 50.1608 212.367 52.4399 209.617 53.5546C207.057 54.5919 205.825 52.9315 205.138 52.7704C199.402 51.4259 199.931 54.1459 199.401 49.7318Z" fill="#28CD2F"/>
<path d="M191.987 53.4394C190.398 53.4394 194.282 50.5931 197.882 49.7419C198.869 49.5088 204.476 48.364 202.862 50.8548C201.36 53.1732 199.398 52.5203 198.743 52.7829C193.273 54.9724 193.753 57.5004 191.987 53.4394Z" fill="#28CD2F"/>
<path d="M184.573 61.0314C183.158 61.7543 185.979 57.2827 188.798 54.8866C189.571 54.2298 194.043 50.6595 193.739 53.612C193.456 56.3601 194.988 54.3221 191.634 57.8535C187.317 62.3989 190.575 65.4452 184.573 61.0314Z" fill="#28CD2F"/>
<path d="M183.471 71.524C181.219 73.0373 181.926 66.5046 182.808 64.0745C183.154 63.1215 184.746 57.5361 186.289 60.0719C189.163 64.7983 188.994 59.2338 188.457 64.0745C187.765 70.3059 188.28 72.5076 183.471 71.524Z" fill="#28CD2F"/>
<path d="M185.375 80.3964C184.397 84.5134 182.031 76.347 181.92 73.764C181.876 72.7511 181.216 66.9808 183.609 68.736C188.07 72.0074 187.398 65.6217 188.457 71.4482C189.578 77.6169 194.635 79.5699 185.375 80.3964Z" fill="#28CD2F"/>
<path d="M191.264 89.225C191.932 93.4036 186.626 86.7613 185.536 84.417C185.109 83.4976 182.294 78.4175 185.176 79.1246C190.548 80.4426 188.782 74.1454 191.988 79.1246C195.381 84.3964 201.873 84.8666 191.264 89.225Z" fill="#28CD2F"/>
<path d="M201.597 94.8699C203.109 98.8145 196.347 94.9857 194.251 93.4727C193.429 92.879 188.492 89.8214 191.352 89.0303C196.683 87.5562 193.189 81.1673 197.813 84.8666C202.226 88.3976 208.228 87.1618 201.597 94.8699Z" fill="#28CD2F"/>
<path d="M211.435 97.1267C214.066 100.432 206.816 99.3442 204.01 98.01C203.094 97.5745 197.418 96.2657 199.907 94.6487C204.545 91.6354 199.527 86.0884 205.05 88.2211C210.323 90.2569 218.466 89.2804 211.435 97.1267Z" fill="#28CD2F"/>
<path d="M221.72 96.7756C229.764 99.6972 218.024 100.325 214.942 99.9339C213.936 99.8065 208.135 100.336 209.995 98.0225C213.46 93.7111 208.701 89.3104 212.817 90.1631C218.352 91.3097 225.949 87.1257 221.72 96.7756Z" fill="#28CD2F"/>
<path d="M232.26 93.9663C240.783 94.7383 229.592 98.3417 226.512 98.7502C225.507 98.8832 220.033 100.876 221.241 98.1645C223.492 93.1112 217.768 90.0708 221.965 89.8448C227.609 89.5412 233.888 83.5565 232.26 93.9663Z" fill="#28CD2F"/>
<path d="M234.161 87.0912C242.219 84.2083 233.579 92.1829 230.956 93.8481C230.1 94.3914 225.971 98.5007 225.927 95.5329C225.846 90.0015 219.374 89.6492 223.088 87.6795C228.081 85.0312 228.705 76.9214 234.161 87.0912Z" fill="#28CD2F"/>
<path d="M240.397 87.2025C248.455 84.3199 243.886 90.0911 238.767 93.3414C237.911 93.8847 232.207 98.612 232.163 95.6443C232.082 90.1131 225.61 89.7609 229.324 87.7911C234.317 85.1428 234.941 77.0331 240.397 87.2025Z" fill="#28CD2F"/>
<path d="M237.486 77.9515C243.703 72.0696 241.842 79.1918 238.463 84.2276C237.898 85.0696 234.578 91.6928 233.344 88.9933C231.044 83.9623 224.978 86.2444 227.585 82.9465C231.091 78.5127 228.4 70.837 237.486 77.9515Z" fill="#28CD2F"/>
<path d="M244.308 77.8425C249.473 71.0174 248.809 78.349 246.305 83.8721C245.886 84.7957 243.701 91.875 242.04 89.4158C238.944 84.832 233.336 88.0817 235.365 84.3994C238.093 79.4491 234.175 72.3212 244.308 77.8425Z" fill="#28CD2F"/>
<path d="M239.122 68.0095C243.722 60.792 243.648 68.1533 241.595 73.8596C241.252 74.8138 239.642 82.0456 237.789 79.7275C234.335 75.4065 229.005 79.0957 230.732 75.2624C233.055 70.1091 228.579 63.3185 239.122 68.0095Z" fill="#28CD2F"/>
<path d="M243.758 68.8712C245.904 60.5855 248.107 67.6094 247.917 73.6712C247.885 74.6846 248.587 82.0602 246.108 80.4281C241.489 77.3856 237.559 82.5405 238.018 78.3613C238.636 72.7423 232.281 67.6666 243.758 68.8712Z" fill="#28CD2F"/>
<path d="M239.386 60.4107C237.643 52.0306 242.728 57.353 245.24 62.8726C245.661 63.7953 249.555 70.0976 246.61 69.7317C241.122 69.0493 239.88 75.412 238.442 71.4611C236.508 66.1497 228.563 64.413 239.386 60.4107Z" fill="#28CD2F"/>
<path d="M234.972 57.2216C234.759 48.6646 238.807 54.813 240.289 60.6937C240.537 61.6768 243.239 68.5755 240.407 67.6873C235.13 66.0317 232.768 72.0684 232.061 67.9234C231.111 62.3515 223.606 59.2179 234.972 57.2216Z" fill="#28CD2F"/>
<path d="M231.665 52.7918C227.623 45.2471 234.005 48.9139 237.976 53.4975C238.64 54.2638 244.158 59.207 241.23 59.689C235.772 60.5872 235.306 67.2593 232.412 64.2094C228.645 60.2401 225.88 54.8518 231.665 52.7918Z" fill="#28CD2F"/>
<path d="M214.498 51.2153C209.11 48.3193 211.229 45.7672 217.231 45.7672C218.244 45.7672 224.956 44.4352 224.956 45.7672C224.956 51.2993 229.057 54.4617 225.032 55.6773C219.794 57.2598 210.169 48.1428 214.498 51.2153Z" fill="#28CD2F"/>
<path d="M220.408 54.3222C216.451 49.6574 221.529 43.4772 227.116 45.6711C228.06 46.0415 234.134 49.0214 233.647 50.2615C231.626 55.4107 233.932 60.9231 230.755 58.17C228.352 56.0877 225.351 55.2049 220.408 54.3222Z" fill="#28CD2F"/>
<path d="M215.624 81.8101C215.624 77.926 220.567 83.3952 221.626 86.2242C221.982 87.174 227.429 91.2412 224.468 91.0462C208.404 89.9866 217.293 92.1201 216.507 87.9897C215.801 84.2821 212.111 81.3355 215.624 81.8101Z" fill="#28CD2F"/>
<path d="M219.349 105.171C219.984 109.002 229.66 103.649 225.174 97.5786C223.938 95.9066 220.895 96.4368 221.114 96.3428C225.032 94.6567 215.596 97.9287 218.409 99.0741C223.409 101.11 222.173 104.818 219.349 105.171Z" fill="#28CD2F"/>
<path d="M236.988 49.7147C234.61 46.644 241.591 54.6752 240.885 53.969C240.168 53.252 242.445 59.432 242.297 59.6189C239.649 62.9633 241.058 58.6787 239.473 56.0879C236.988 52.0269 233.92 51.491 236.988 49.7147Z" fill="#28CD2F"/>
<path d="M223.572 62.4268C221.193 59.3561 227.822 64.5624 227.116 63.8562C226.399 63.1393 228.705 58.3831 232.059 62.0907C234.92 65.2541 227.642 70.3315 226.057 67.7407C223.572 63.6797 220.504 64.2031 223.572 62.4268Z" fill="#28CD2F"/>
<path d="M212.111 83.0814C212.255 83.0442 212.575 83.007 213.491 82.8677C213.711 82.834 214.269 81.6253 214.583 82.1987C215.465 83.813 214.747 84.0166 213.844 83.813C212.785 83.5739 208.901 85.3394 212.111 83.0814Z" fill="#28CD2F"/>
<path d="M223.785 105.107C223.65 105.167 223.34 105.256 222.46 105.543C222.247 105.612 221.895 106.896 221.492 106.382C220.357 104.934 221.032 104.615 221.957 104.669C223.041 104.731 226.583 102.354 223.785 105.107Z" fill="#28CD2F"/>
<path d="M233.467 52.0586C233.558 51.9413 233.788 51.7156 234.427 51.0448C234.581 50.8831 234.281 49.5856 234.88 49.847C236.566 50.5824 236.123 51.1835 235.284 51.5756C234.301 52.0356 232.312 55.8099 233.467 52.0586Z" fill="#28CD2F"/>
<path d="M219.698 64.1546C219.789 64.037 220.019 63.8116 220.658 63.1406C220.812 62.9789 220.512 61.6817 221.111 61.9428C222.797 62.6782 222.354 63.2793 221.515 63.6714C220.532 64.1314 218.543 67.906 219.698 64.1546Z" fill="#28CD2F"/>
<path d="M212.205 79.314C212.334 79.3875 212.589 79.5843 213.341 80.1238C213.523 80.2539 214.766 79.7778 214.591 80.4075C214.096 82.1793 213.439 81.8235 212.935 81.047C212.343 80.1366 208.33 78.689 212.205 79.314Z" fill="#28CD2F"/>
<path d="M223.357 107.401C223.218 107.349 222.933 107.197 222.103 106.788C221.902 106.689 220.754 107.362 220.824 106.712C221.022 104.883 221.728 105.127 222.353 105.81C223.086 106.612 227.281 107.383 223.357 107.401Z" fill="#28CD2F"/>
<path d="M232.755 49.836C232.902 49.8152 233.225 49.8146 234.15 49.78C234.373 49.7717 235.064 48.6341 235.311 49.2394C236.005 50.9429 235.268 51.0638 234.394 50.7589C233.368 50.4017 229.31 51.7153 232.755 49.836Z" fill="#28CD2F"/>
<path d="M218.986 61.9317C219.133 61.9112 219.456 61.9103 220.381 61.8757C220.604 61.8674 221.295 60.7298 221.542 61.3351C222.236 63.0389 221.499 63.1598 220.625 62.855C219.599 62.4974 215.541 63.811 218.986 61.9317Z" fill="#28CD2F"/>
<path d="M214.583 79.0403C214.583 78.4095 215.419 78.4092 216.171 78.9486C216.353 79.0788 217.406 79.9996 217.231 80.6293C216.736 82.4011 214.55 83.3744 213.97 82.6527C213.063 81.5246 213.96 77.4454 214.583 79.0403Z" fill="#28CD2F"/>
<path d="M221.056 108.06C221.159 108.682 220.334 108.819 219.503 108.41C219.303 108.311 218.113 107.575 218.183 106.925C218.382 105.096 220.379 103.779 221.069 104.396C222.148 105.36 221.931 109.531 221.056 108.06Z" fill="#28CD2F"/>
<path d="M234.468 48.163C234.081 47.6644 234.742 47.1523 235.668 47.1177C235.891 47.1094 237.287 47.1922 237.534 47.7974C238.228 49.5013 237.095 51.6092 236.195 51.394C234.788 51.0575 232.999 47.2839 234.468 48.163Z" fill="#28CD2F"/>
<path d="M221.052 60.8751C220.665 60.3767 221.326 59.8643 222.251 59.8298C222.475 59.8214 223.871 59.9042 224.118 60.5095C224.812 62.2134 223.679 64.3216 222.779 64.1063C221.372 63.7696 219.583 59.9959 221.052 60.8751Z" fill="#28CD2F"/>
<path d="M215.818 77.0979C215.818 77.2745 215.995 77.9807 216.304 78.3546C216.447 78.5267 217.391 79.3383 216.772 79.547C215.029 80.1341 215.112 79.26 215.112 78.3338C215.112 77.0979 215.465 73.5669 215.818 77.0979Z" fill="#28CD2F"/>
<path d="M220.154 110.178C220.125 110.004 219.836 109.336 219.469 109.018C219.301 108.871 218.236 108.225 218.813 107.918C220.437 107.054 220.497 107.93 220.649 108.843C220.851 110.062 221.08 113.604 220.154 110.178Z" fill="#28CD2F"/>
<path d="M234.255 45.8708C234.364 46.0105 234.935 46.4606 235.409 46.5666C235.627 46.6155 236.871 46.6786 236.509 47.2228C235.49 48.7546 235.021 48.0124 234.454 47.2806C233.697 46.3034 231.814 43.2955 234.255 45.8708Z" fill="#28CD2F"/>
<path d="M220.839 58.5829C220.947 58.7225 221.519 59.1727 221.993 59.2787C222.211 59.3275 223.455 59.3906 223.093 59.9349C222.074 61.4667 221.605 60.7244 221.038 59.9926C220.281 59.0155 218.398 56.0078 220.839 58.5829Z" fill="#28CD2F"/>
<path d="M217.937 79.3935C217.937 79.3935 217.76 77.6277 217.198 80.1735C217.15 80.3915 215.743 80.3546 215.99 79.749C216.683 78.0454 217.412 77.3761 218.113 77.9808C219.049 78.7879 218.113 80.6294 217.937 79.3935Z" fill="#28CD2F"/>
<path d="M217.457 109.995C217.457 109.995 218.2 109.517 218.416 107.102C218.436 106.88 219.552 107.076 219.408 107.714C219.003 109.509 218.59 109.755 218.15 110.57C217.815 111.191 216.954 111.453 217.457 109.995Z" fill="#28CD2F"/>
<path d="M236.716 44.7511C236.716 44.7511 236.29 45.5246 237.246 47.7525C237.333 47.9576 236.257 48.3146 236.082 47.6852C235.587 45.9131 235.833 45.5004 235.833 44.5745C235.833 43.8683 236.466 43.2294 236.716 44.7511Z" fill="#28CD2F"/>
<path d="M223.3 57.4631C223.3 57.4631 222.874 58.2366 223.83 60.4645C223.918 60.6696 222.841 61.0266 222.666 60.3972C222.171 58.6251 222.417 58.2125 222.417 57.2865C222.417 56.5803 223.05 55.9414 223.3 57.4631Z" fill="#28CD2F"/>
<path d="M213.523 76.7449C213.742 77.5083 214.093 78.3342 214.406 78.3342C214.672 78.3342 216.178 78.6694 215.585 79.1728C213.918 80.5903 213.347 78.8638 212.641 77.2745C212.116 76.0941 212.111 71.8014 213.523 76.7449Z" fill="#28CD2F"/>
<path d="M222.476 110.151C222.136 109.434 221.654 108.676 221.345 108.728C221.083 108.771 219.543 108.687 220.045 108.093C221.458 106.422 222.304 108.032 223.26 109.484C223.971 110.563 224.678 114.797 222.476 110.151Z" fill="#28CD2F"/>
<path d="M232.225 46.9975C232.864 47.4673 233.648 47.9049 233.896 47.7129C234.106 47.5503 235.501 46.893 235.341 47.654C234.891 49.7958 233.383 48.7806 231.851 47.9567C230.714 47.3446 228.082 43.9541 232.225 46.9975Z" fill="#28CD2F"/>
<path d="M218.809 59.7095C219.449 60.1793 220.232 60.617 220.48 60.4249C220.69 60.2624 222.086 59.605 221.926 60.366C221.475 62.5078 219.967 61.4926 218.436 60.6688C217.298 60.0567 214.666 56.6661 218.809 59.7095Z" fill="#28CD2F"/>
<path d="M219.408 48.2634C218.534 47.7189 218.947 47.1106 219.98 46.9987C220.155 46.9796 220.919 47.0043 221.138 47.2062C221.646 47.673 221.854 48.7151 221.138 49.061C220.207 49.5112 218.72 47.6596 219.408 48.2634Z" fill="black"/>
<path d="M11.8011 119.974C11.7415 119.47 11.4995 119.079 11.0753 118.801C10.651 118.523 10.1307 118.383 9.5142 118.383C9.06345 118.383 8.66903 118.456 8.33097 118.602C7.99621 118.748 7.73438 118.948 7.54545 119.204C7.35985 119.459 7.26705 119.749 7.26705 120.074C7.26705 120.345 7.33168 120.579 7.46094 120.775C7.59351 120.967 7.76255 121.128 7.96804 121.257C8.17353 121.383 8.38897 121.487 8.61435 121.57C8.83973 121.65 9.04688 121.714 9.2358 121.764L10.2699 122.042C10.535 122.112 10.83 122.208 11.1548 122.331C11.483 122.453 11.7962 122.621 12.0945 122.833C12.3961 123.042 12.6446 123.31 12.8402 123.638C13.0357 123.966 13.1335 124.369 13.1335 124.846C13.1335 125.397 12.9893 125.894 12.701 126.338C12.416 126.782 11.9983 127.135 11.4482 127.397C10.9013 127.659 10.2367 127.79 9.45455 127.79C8.72538 127.79 8.09399 127.672 7.56037 127.437C7.03007 127.201 6.61245 126.873 6.30753 126.452C6.00592 126.031 5.83523 125.542 5.79545 124.986H7.06818C7.10133 125.37 7.23059 125.688 7.45597 125.94C7.68466 126.189 7.97301 126.374 8.32102 126.497C8.67235 126.616 9.05019 126.676 9.45455 126.676C9.92519 126.676 10.3478 126.6 10.7223 126.447C11.0968 126.291 11.3935 126.076 11.6122 125.801C11.831 125.523 11.9403 125.198 11.9403 124.827C11.9403 124.488 11.8459 124.213 11.657 124.001C11.468 123.789 11.2195 123.617 10.9112 123.484C10.603 123.352 10.2699 123.236 9.91193 123.136L8.65909 122.778C7.86364 122.55 7.2339 122.223 6.76989 121.799C6.30587 121.375 6.07386 120.819 6.07386 120.133C6.07386 119.563 6.22798 119.066 6.53622 118.642C6.84777 118.214 7.26539 117.883 7.78906 117.648C8.31605 117.409 8.90436 117.29 9.55398 117.29C10.2102 117.29 10.7936 117.407 11.304 117.643C11.8144 117.875 12.2188 118.193 12.517 118.597C12.8187 119.001 12.9777 119.461 12.9943 119.974H11.8011ZM18.2033 127.77C17.4675 127.77 16.8328 127.607 16.2992 127.282C15.7689 126.954 15.3596 126.497 15.0712 125.91C14.7862 125.32 14.6436 124.634 14.6436 123.852C14.6436 123.07 14.7862 122.38 15.0712 121.784C15.3596 121.184 15.7606 120.717 16.2743 120.382C16.7914 120.044 17.3946 119.875 18.084 119.875C18.4817 119.875 18.8745 119.941 19.2623 120.074C19.65 120.206 20.003 120.422 20.3212 120.72C20.6394 121.015 20.8929 121.406 21.0819 121.893C21.2708 122.38 21.3652 122.98 21.3652 123.693V124.19H15.4789V123.176H20.1721C20.1721 122.745 20.0859 122.361 19.9135 122.023C19.7445 121.684 19.5025 121.418 19.1877 121.222C18.8761 121.027 18.5082 120.929 18.084 120.929C17.6167 120.929 17.2123 121.045 16.8709 121.277C16.5328 121.505 16.2727 121.804 16.0904 122.172C15.9081 122.54 15.8169 122.934 15.8169 123.355V124.031C15.8169 124.608 15.9164 125.097 16.1152 125.498C16.3174 125.895 16.5975 126.199 16.9554 126.407C17.3134 126.613 17.7293 126.716 18.2033 126.716C18.5115 126.716 18.79 126.673 19.0385 126.586C19.2904 126.497 19.5075 126.364 19.6898 126.189C19.8721 126.01 20.013 125.788 20.1124 125.523L21.2459 125.841C21.1266 126.225 20.9261 126.563 20.6444 126.855C20.3626 127.143 20.0146 127.369 19.6003 127.531C19.186 127.69 18.7203 127.77 18.2033 127.77ZM27.9625 124.488V119.974H29.1358V127.611H27.9625V126.318H27.883C27.704 126.706 27.4256 127.036 27.0478 127.307C26.6699 127.576 26.1926 127.71 25.6159 127.71C25.1387 127.71 24.7144 127.606 24.3432 127.397C23.972 127.185 23.6803 126.867 23.4682 126.442C23.2561 126.015 23.15 125.476 23.15 124.827V119.974H24.3233V124.747C24.3233 125.304 24.4791 125.748 24.7907 126.079C25.1055 126.411 25.5066 126.577 25.9938 126.577C26.2855 126.577 26.5821 126.502 26.8837 126.353C27.1886 126.204 27.4438 125.975 27.6493 125.667C27.8581 125.358 27.9625 124.966 27.9625 124.488ZM40.6314 121.684L39.5774 121.983C39.5111 121.807 39.4134 121.636 39.2841 121.471C39.1581 121.302 38.9858 121.162 38.767 121.053C38.5483 120.944 38.2682 120.889 37.9268 120.889C37.4595 120.889 37.0701 120.997 36.7585 121.212C36.4503 121.424 36.2962 121.694 36.2962 122.023C36.2962 122.314 36.4022 122.545 36.6143 122.714C36.8265 122.883 37.1579 123.023 37.6087 123.136L38.7422 123.415C39.425 123.58 39.9337 123.834 40.2685 124.175C40.6032 124.513 40.7706 124.949 40.7706 125.483C40.7706 125.92 40.6446 126.311 40.3928 126.656C40.1442 127.001 39.7962 127.273 39.3487 127.471C38.9013 127.67 38.3809 127.77 37.7876 127.77C37.0088 127.77 36.3641 127.601 35.8537 127.263C35.3433 126.925 35.0201 126.431 34.8842 125.781L35.9979 125.503C36.1039 125.914 36.3045 126.222 36.5994 126.427C36.8977 126.633 37.2872 126.736 37.7678 126.736C38.3146 126.736 38.7488 126.62 39.0703 126.388C39.3951 126.152 39.5575 125.871 39.5575 125.542C39.5575 125.277 39.4647 125.055 39.2791 124.876C39.0935 124.694 38.8085 124.558 38.424 124.469L37.1513 124.17C36.4519 124.005 35.9382 123.748 35.6101 123.4C35.2853 123.048 35.1229 122.609 35.1229 122.082C35.1229 121.651 35.2438 121.27 35.4858 120.939C35.7311 120.607 36.0642 120.347 36.4851 120.158C36.9093 119.969 37.3899 119.875 37.9268 119.875C38.6825 119.875 39.2758 120.041 39.7067 120.372C40.1409 120.703 40.4491 121.141 40.6314 121.684ZM42.5368 127.611V119.974H43.71V127.611H42.5368ZM43.1333 118.702C42.9047 118.702 42.7074 118.624 42.5417 118.468C42.3793 118.312 42.2981 118.125 42.2981 117.906C42.2981 117.687 42.3793 117.5 42.5417 117.344C42.7074 117.188 42.9047 117.111 43.1333 117.111C43.362 117.111 43.5576 117.188 43.72 117.344C43.8857 117.5 43.9686 117.687 43.9686 117.906C43.9686 118.125 43.8857 118.312 43.72 118.468C43.5576 118.624 43.362 118.702 43.1333 118.702ZM49.18 119.974V120.969H45.2227V119.974H49.18ZM46.3761 118.145H47.5494V125.423C47.5494 125.755 47.5974 126.003 47.6935 126.169C47.793 126.331 47.9189 126.441 48.0714 126.497C48.2272 126.55 48.3912 126.577 48.5636 126.577C48.6928 126.577 48.7989 126.57 48.8817 126.557C48.9646 126.54 49.0309 126.527 49.0806 126.517L49.3192 127.571C49.2397 127.601 49.1287 127.63 48.9862 127.66C48.8436 127.693 48.663 127.71 48.4442 127.71C48.1128 127.71 47.788 127.639 47.4698 127.496C47.1549 127.354 46.8931 127.137 46.6843 126.845C46.4788 126.553 46.3761 126.185 46.3761 125.741V118.145ZM54.0646 127.77C53.3288 127.77 52.6941 127.607 52.1605 127.282C51.6302 126.954 51.2209 126.497 50.9325 125.91C50.6475 125.32 50.505 124.634 50.505 123.852C50.505 123.07 50.6475 122.38 50.9325 121.784C51.2209 121.184 51.6219 120.717 52.1357 120.382C52.6527 120.044 53.2559 119.875 53.9453 119.875C54.343 119.875 54.7358 119.941 55.1236 120.074C55.5114 120.206 55.8643 120.422 56.1825 120.72C56.5007 121.015 56.7543 121.406 56.9432 121.893C57.1321 122.38 57.2266 122.98 57.2266 123.693V124.19H51.3402V123.176H56.0334C56.0334 122.745 55.9472 122.361 55.7749 122.023C55.6058 121.684 55.3639 121.418 55.049 121.222C54.7375 121.027 54.3696 120.929 53.9453 120.929C53.478 120.929 53.0736 121.045 52.7322 121.277C52.3942 121.505 52.134 121.804 51.9517 122.172C51.7694 122.54 51.6783 122.934 51.6783 123.355V124.031C51.6783 124.608 51.7777 125.097 51.9766 125.498C52.1787 125.895 52.4588 126.199 52.8168 126.407C53.1747 126.613 53.5907 126.716 54.0646 126.716C54.3729 126.716 54.6513 126.673 54.8999 126.586C55.1518 126.497 55.3688 126.364 55.5511 126.189C55.7334 126.01 55.8743 125.788 55.9737 125.523L57.1072 125.841C56.9879 126.225 56.7874 126.563 56.5057 126.855C56.224 127.143 55.8759 127.369 55.4616 127.531C55.0473 127.69 54.5817 127.77 54.0646 127.77ZM60.7614 126.219L60.6818 126.755C60.6255 127.133 60.5393 127.538 60.4233 127.969C60.3106 128.399 60.1929 128.805 60.0703 129.187C59.9477 129.568 59.8466 129.871 59.767 130.096H58.8722C58.9152 129.884 58.9716 129.604 59.0412 129.256C59.1108 128.908 59.1804 128.519 59.25 128.088C59.3229 127.66 59.3826 127.223 59.429 126.775L59.4886 126.219H60.7614ZM72.2818 121.684L71.2278 121.983C71.1615 121.807 71.0637 121.636 70.9345 121.471C70.8085 121.302 70.6362 121.162 70.4174 121.053C70.1987 120.944 69.9186 120.889 69.5772 120.889C69.1099 120.889 68.7205 120.997 68.4089 121.212C68.1007 121.424 67.9466 121.694 67.9466 122.023C67.9466 122.314 68.0526 122.545 68.2647 122.714C68.4769 122.883 68.8083 123.023 69.2591 123.136L70.3926 123.415C71.0753 123.58 71.5841 123.834 71.9189 124.175C72.2536 124.513 72.421 124.949 72.421 125.483C72.421 125.92 72.295 126.311 72.0431 126.656C71.7946 127.001 71.4466 127.273 70.9991 127.471C70.5517 127.67 70.0313 127.77 69.438 127.77C68.6592 127.77 68.0145 127.601 67.5041 127.263C66.9937 126.925 66.6705 126.431 66.5346 125.781L67.6483 125.503C67.7543 125.914 67.9548 126.222 68.2498 126.427C68.5481 126.633 68.9376 126.736 69.4181 126.736C69.965 126.736 70.3992 126.62 70.7207 126.388C71.0455 126.152 71.2079 125.871 71.2079 125.542C71.2079 125.277 71.1151 125.055 70.9295 124.876C70.7439 124.694 70.4589 124.558 70.0744 124.469L68.8017 124.17C68.1023 124.005 67.5886 123.748 67.2605 123.4C66.9357 123.048 66.7733 122.609 66.7733 122.082C66.7733 121.651 66.8942 121.27 67.1362 120.939C67.3815 120.607 67.7145 120.347 68.1355 120.158C68.5597 119.969 69.0403 119.875 69.5772 119.875C70.3329 119.875 70.9262 120.041 71.3571 120.372C71.7913 120.703 72.0995 121.141 72.2818 121.684ZM77.3888 127.77C76.6531 127.77 76.0183 127.607 75.4847 127.282C74.9544 126.954 74.5451 126.497 74.2567 125.91C73.9717 125.32 73.8292 124.634 73.8292 123.852C73.8292 123.07 73.9717 122.38 74.2567 121.784C74.5451 121.184 74.9461 120.717 75.4599 120.382C75.9769 120.044 76.5801 119.875 77.2695 119.875C77.6673 119.875 78.06 119.941 78.4478 120.074C78.8356 120.206 79.1886 120.422 79.5067 120.72C79.8249 121.015 80.0785 121.406 80.2674 121.893C80.4563 122.38 80.5508 122.98 80.5508 123.693V124.19H74.6644V123.176H79.3576C79.3576 122.745 79.2714 122.361 79.0991 122.023C78.93 121.684 78.6881 121.418 78.3732 121.222C78.0617 121.027 77.6938 120.929 77.2695 120.929C76.8022 120.929 76.3978 121.045 76.0565 121.277C75.7184 121.505 75.4582 121.804 75.2759 122.172C75.0936 122.54 75.0025 122.934 75.0025 123.355V124.031C75.0025 124.608 75.1019 125.097 75.3008 125.498C75.503 125.895 75.783 126.199 76.141 126.407C76.4989 126.613 76.9149 126.716 77.3888 126.716C77.6971 126.716 77.9755 126.673 78.2241 126.586C78.476 126.497 78.6931 126.364 78.8754 126.189C79.0576 126.01 79.1985 125.788 79.2979 125.523L80.4315 125.841C80.3121 126.225 80.1116 126.563 79.8299 126.855C79.5482 127.143 79.2002 127.369 78.7859 127.531C78.3716 127.69 77.9059 127.77 77.3888 127.77ZM87.1481 124.488V119.974H88.3214V127.611H87.1481V126.318H87.0685C86.8896 126.706 86.6112 127.036 86.2333 127.307C85.8555 127.576 85.3782 127.71 84.8015 127.71C84.3242 127.71 83.9 127.606 83.5288 127.397C83.1576 127.185 82.8659 126.867 82.6538 126.442C82.4416 126.015 82.3356 125.476 82.3356 124.827V119.974H83.5089V124.747C83.5089 125.304 83.6647 125.748 83.9762 126.079C84.2911 126.411 84.6921 126.577 85.1793 126.577C85.471 126.577 85.7676 126.502 86.0692 126.353C86.3742 126.204 86.6294 125.975 86.8349 125.667C87.0437 125.358 87.1481 124.966 87.1481 124.488ZM95.5811 123.017V127.611H94.4078V119.974H95.5414V121.167H95.6408C95.8198 120.78 96.0916 120.468 96.4561 120.233C96.8207 119.994 97.2914 119.875 97.8681 119.875C98.3851 119.875 98.8375 119.981 99.2253 120.193C99.6131 120.402 99.9147 120.72 100.13 121.148C100.346 121.572 100.453 122.109 100.453 122.758V127.611H99.28V122.838C99.28 122.238 99.1242 121.771 98.8127 121.436C98.5011 121.098 98.0736 120.929 97.53 120.929C97.1555 120.929 96.8207 121.01 96.5257 121.172C96.2341 121.335 96.0037 121.572 95.8347 121.883C95.6657 122.195 95.5811 122.573 95.5811 123.017ZM105.799 127.77C105.063 127.77 104.429 127.607 103.895 127.282C103.365 126.954 102.955 126.497 102.667 125.91C102.382 125.32 102.239 124.634 102.239 123.852C102.239 123.07 102.382 122.38 102.667 121.784C102.955 121.184 103.356 120.717 103.87 120.382C104.387 120.044 104.99 119.875 105.68 119.875C106.077 119.875 106.47 119.941 106.858 120.074C107.246 120.206 107.599 120.422 107.917 120.72C108.235 121.015 108.489 121.406 108.678 121.893C108.866 122.38 108.961 122.98 108.961 123.693V124.19H103.075V123.176H107.768C107.768 122.745 107.682 122.361 107.509 122.023C107.34 121.684 107.098 121.418 106.783 121.222C106.472 121.027 106.104 120.929 105.68 120.929C105.212 120.929 104.808 121.045 104.467 121.277C104.129 121.505 103.868 121.804 103.686 122.172C103.504 122.54 103.413 122.934 103.413 123.355V124.031C103.413 124.608 103.512 125.097 103.711 125.498C103.913 125.895 104.193 126.199 104.551 126.407C104.909 126.613 105.325 126.716 105.799 126.716C106.107 126.716 106.386 126.673 106.634 126.586C106.886 126.497 107.103 126.364 107.286 126.189C107.468 126.01 107.609 125.788 107.708 125.523L108.842 125.841C108.722 126.225 108.522 126.563 108.24 126.855C107.958 127.143 107.61 127.369 107.196 127.531C106.782 127.69 106.316 127.77 105.799 127.77ZM113.828 130.633C113.261 130.633 112.774 130.56 112.366 130.415C111.959 130.272 111.619 130.083 111.347 129.848C111.079 129.616 110.865 129.367 110.706 129.102L111.641 128.446C111.747 128.585 111.881 128.744 112.043 128.923C112.206 129.105 112.428 129.263 112.71 129.395C112.995 129.531 113.367 129.599 113.828 129.599C114.445 129.599 114.953 129.45 115.354 129.152C115.755 128.853 115.956 128.386 115.956 127.75V126.199H115.857C115.77 126.338 115.648 126.51 115.489 126.716C115.333 126.918 115.107 127.099 114.812 127.258C114.521 127.413 114.126 127.491 113.629 127.491C113.013 127.491 112.459 127.345 111.969 127.054C111.482 126.762 111.095 126.338 110.81 125.781C110.529 125.224 110.388 124.548 110.388 123.753C110.388 122.97 110.525 122.289 110.8 121.709C111.076 121.126 111.458 120.675 111.949 120.357C112.439 120.036 113.006 119.875 113.649 119.875C114.146 119.875 114.541 119.958 114.832 120.123C115.127 120.286 115.353 120.471 115.509 120.68C115.668 120.886 115.79 121.055 115.876 121.187H115.996V119.974H117.129V127.829C117.129 128.486 116.98 129.019 116.682 129.43C116.387 129.844 115.989 130.148 115.489 130.34C114.991 130.536 114.438 130.633 113.828 130.633ZM113.788 126.437C114.259 126.437 114.657 126.33 114.982 126.114C115.306 125.899 115.553 125.589 115.722 125.184C115.891 124.78 115.976 124.296 115.976 123.733C115.976 123.183 115.893 122.697 115.727 122.276C115.562 121.855 115.316 121.525 114.991 121.287C114.667 121.048 114.266 120.929 113.788 120.929C113.291 120.929 112.877 121.055 112.545 121.307C112.217 121.559 111.97 121.897 111.805 122.321C111.642 122.745 111.561 123.216 111.561 123.733C111.561 124.263 111.644 124.732 111.81 125.14C111.979 125.544 112.227 125.862 112.555 126.094C112.887 126.323 113.298 126.437 113.788 126.437ZM122.379 127.77C121.69 127.77 121.085 127.606 120.565 127.277C120.048 126.949 119.643 126.49 119.352 125.9C119.063 125.31 118.919 124.621 118.919 123.832C118.919 123.037 119.063 122.342 119.352 121.749C119.643 121.156 120.048 120.695 120.565 120.367C121.085 120.039 121.69 119.875 122.379 119.875C123.069 119.875 123.672 120.039 124.189 120.367C124.709 120.695 125.114 121.156 125.402 121.749C125.694 122.342 125.839 123.037 125.839 123.832C125.839 124.621 125.694 125.31 125.402 125.9C125.114 126.49 124.709 126.949 124.189 127.277C123.672 127.606 123.069 127.77 122.379 127.77ZM122.379 126.716C122.903 126.716 123.334 126.581 123.672 126.313C124.01 126.045 124.26 125.692 124.423 125.254C124.585 124.817 124.666 124.343 124.666 123.832C124.666 123.322 124.585 122.846 124.423 122.405C124.26 121.965 124.01 121.608 123.672 121.336C123.334 121.065 122.903 120.929 122.379 120.929C121.856 120.929 121.425 121.065 121.087 121.336C120.749 121.608 120.498 121.965 120.336 122.405C120.174 122.846 120.092 123.322 120.092 123.832C120.092 124.343 120.174 124.817 120.336 125.254C120.498 125.692 120.749 126.045 121.087 126.313C121.425 126.581 121.856 126.716 122.379 126.716ZM121.842 118.94L123.055 116.633H124.428L122.876 118.94H121.842ZM130.733 127.77C130.017 127.77 129.4 127.601 128.883 127.263C128.366 126.925 127.969 126.459 127.69 125.866C127.412 125.272 127.273 124.594 127.273 123.832C127.273 123.057 127.415 122.372 127.7 121.779C127.988 121.182 128.39 120.717 128.903 120.382C129.42 120.044 130.023 119.875 130.713 119.875C131.25 119.875 131.734 119.974 132.165 120.173C132.595 120.372 132.948 120.65 133.224 121.008C133.499 121.366 133.669 121.784 133.736 122.261H132.562C132.473 121.913 132.274 121.605 131.966 121.336C131.661 121.065 131.25 120.929 130.733 120.929C130.275 120.929 129.874 121.048 129.53 121.287C129.188 121.522 128.921 121.855 128.729 122.286C128.54 122.714 128.446 123.216 128.446 123.792C128.446 124.382 128.539 124.896 128.724 125.334C128.913 125.771 129.178 126.111 129.52 126.353C129.864 126.595 130.269 126.716 130.733 126.716C131.038 126.716 131.314 126.663 131.563 126.557C131.812 126.451 132.022 126.298 132.194 126.099C132.367 125.9 132.489 125.662 132.562 125.383H133.736C133.669 125.834 133.505 126.24 133.243 126.601C132.985 126.959 132.642 127.244 132.214 127.456C131.79 127.665 131.296 127.77 130.733 127.77ZM135.451 127.611V119.974H136.624V127.611H135.451ZM136.047 118.702C135.819 118.702 135.622 118.624 135.456 118.468C135.293 118.312 135.212 118.125 135.212 117.906C135.212 117.687 135.293 117.5 135.456 117.344C135.622 117.188 135.819 117.111 136.047 117.111C136.276 117.111 136.472 117.188 136.634 117.344C136.8 117.5 136.883 117.687 136.883 117.906C136.883 118.125 136.8 118.312 136.634 118.468C136.472 118.624 136.276 118.702 136.047 118.702ZM141.875 127.77C141.186 127.77 140.581 127.606 140.061 127.277C139.544 126.949 139.139 126.49 138.848 125.9C138.559 125.31 138.415 124.621 138.415 123.832C138.415 123.037 138.559 122.342 138.848 121.749C139.139 121.156 139.544 120.695 140.061 120.367C140.581 120.039 141.186 119.875 141.875 119.875C142.565 119.875 143.168 120.039 143.685 120.367C144.205 120.695 144.61 121.156 144.898 121.749C145.19 122.342 145.336 123.037 145.336 123.832C145.336 124.621 145.19 125.31 144.898 125.9C144.61 126.49 144.205 126.949 143.685 127.277C143.168 127.606 142.565 127.77 141.875 127.77ZM141.875 126.716C142.399 126.716 142.83 126.581 143.168 126.313C143.506 126.045 143.756 125.692 143.919 125.254C144.081 124.817 144.162 124.343 144.162 123.832C144.162 123.322 144.081 122.846 143.919 122.405C143.756 121.965 143.506 121.608 143.168 121.336C142.83 121.065 142.399 120.929 141.875 120.929C141.352 120.929 140.921 121.065 140.583 121.336C140.245 121.608 139.994 121.965 139.832 122.405C139.67 122.846 139.588 123.322 139.588 123.832C139.588 124.343 139.67 124.817 139.832 125.254C139.994 125.692 140.245 126.045 140.583 126.313C140.921 126.581 141.352 126.716 141.875 126.716ZM148.877 126.219L148.797 126.755C148.741 127.133 148.655 127.538 148.539 127.969C148.426 128.399 148.308 128.805 148.186 129.187C148.063 129.568 147.962 129.871 147.882 130.096H146.987C147.03 129.884 147.087 129.604 147.156 129.256C147.226 128.908 147.296 128.519 147.365 128.088C147.438 127.66 147.498 127.223 147.544 126.775L147.604 126.219H148.877ZM156.161 123.017V127.611H154.988V119.974H156.121V121.167H156.221C156.4 120.78 156.672 120.468 157.036 120.233C157.401 119.994 157.871 119.875 158.448 119.875C158.965 119.875 159.418 119.981 159.805 120.193C160.193 120.402 160.495 120.72 160.71 121.148C160.926 121.572 161.033 122.109 161.033 122.758V127.611H159.86V122.838C159.86 122.238 159.704 121.771 159.393 121.436C159.081 121.098 158.654 120.929 158.11 120.929C157.736 120.929 157.401 121.01 157.106 121.172C156.814 121.335 156.584 121.572 156.415 121.883C156.246 122.195 156.161 122.573 156.161 123.017ZM166.28 127.77C165.59 127.77 164.985 127.606 164.465 127.277C163.948 126.949 163.544 126.49 163.252 125.9C162.964 125.31 162.819 124.621 162.819 123.832C162.819 123.037 162.964 122.342 163.252 121.749C163.544 121.156 163.948 120.695 164.465 120.367C164.985 120.039 165.59 119.875 166.28 119.875C166.969 119.875 167.572 120.039 168.089 120.367C168.61 120.695 169.014 121.156 169.302 121.749C169.594 122.342 169.74 123.037 169.74 123.832C169.74 124.621 169.594 125.31 169.302 125.9C169.014 126.49 168.61 126.949 168.089 127.277C167.572 127.606 166.969 127.77 166.28 127.77ZM166.28 126.716C166.803 126.716 167.234 126.581 167.572 126.313C167.91 126.045 168.161 125.692 168.323 125.254C168.485 124.817 168.567 124.343 168.567 123.832C168.567 123.322 168.485 122.846 168.323 122.405C168.161 121.965 167.91 121.608 167.572 121.336C167.234 121.065 166.803 120.929 166.28 120.929C165.756 120.929 165.325 121.065 164.987 121.336C164.649 121.608 164.399 121.965 164.236 122.405C164.074 122.846 163.993 123.322 163.993 123.832C163.993 124.343 164.074 124.817 164.236 125.254C164.399 125.692 164.649 126.045 164.987 126.313C165.325 126.581 165.756 126.716 166.28 126.716ZM176.94 121.684L175.886 121.983C175.82 121.807 175.722 121.636 175.593 121.471C175.467 121.302 175.294 121.162 175.076 121.053C174.857 120.944 174.577 120.889 174.235 120.889C173.768 120.889 173.379 120.997 173.067 121.212C172.759 121.424 172.605 121.694 172.605 122.023C172.605 122.314 172.711 122.545 172.923 122.714C173.135 122.883 173.467 123.023 173.917 123.136L175.051 123.415C175.734 123.58 176.242 123.834 176.577 124.175C176.912 124.513 177.079 124.949 177.079 125.483C177.079 125.92 176.953 126.311 176.701 126.656C176.453 127.001 176.105 127.273 175.657 127.471C175.21 127.67 174.69 127.77 174.096 127.77C173.317 127.77 172.673 127.601 172.162 127.263C171.652 126.925 171.329 126.431 171.193 125.781L172.306 125.503C172.413 125.914 172.613 126.222 172.908 126.427C173.206 126.633 173.596 126.736 174.076 126.736C174.623 126.736 175.057 126.62 175.379 126.388C175.704 126.152 175.866 125.871 175.866 125.542C175.866 125.277 175.773 125.055 175.588 124.876C175.402 124.694 175.117 124.558 174.733 124.469L173.46 124.17C172.761 124.005 172.247 123.748 171.919 123.4C171.594 123.048 171.431 122.609 171.431 122.082C171.431 121.651 171.552 121.27 171.794 120.939C172.04 120.607 172.373 120.347 172.794 120.158C173.218 119.969 173.699 119.875 174.235 119.875C174.991 119.875 175.584 120.041 176.015 120.372C176.449 120.703 176.758 121.141 176.94 121.684ZM184.254 121.684L183.2 121.983C183.134 121.807 183.036 121.636 182.907 121.471C182.781 121.302 182.609 121.162 182.39 121.053C182.171 120.944 181.891 120.889 181.55 120.889C181.083 120.889 180.693 120.997 180.382 121.212C180.073 121.424 179.919 121.694 179.919 122.023C179.919 122.314 180.025 122.545 180.237 122.714C180.45 122.883 180.781 123.023 181.232 123.136L182.365 123.415C183.048 123.58 183.557 123.834 183.892 124.175C184.226 124.513 184.394 124.949 184.394 125.483C184.394 125.92 184.268 126.311 184.016 126.656C183.767 127.001 183.419 127.273 182.972 127.471C182.524 127.67 182.004 127.77 181.411 127.77C180.632 127.77 179.987 127.601 179.477 127.263C178.966 126.925 178.643 126.431 178.507 125.781L179.621 125.503C179.727 125.914 179.927 126.222 180.222 126.427C180.521 126.633 180.91 126.736 181.391 126.736C181.938 126.736 182.372 126.62 182.693 126.388C183.018 126.152 183.181 125.871 183.181 125.542C183.181 125.277 183.088 125.055 182.902 124.876C182.717 124.694 182.432 124.558 182.047 124.469L180.774 124.17C180.075 124.005 179.561 123.748 179.233 123.4C178.908 123.048 178.746 122.609 178.746 122.082C178.746 121.651 178.867 121.27 179.109 120.939C179.354 120.607 179.687 120.347 180.108 120.158C180.532 119.969 181.013 119.875 181.55 119.875C182.306 119.875 182.899 120.041 183.33 120.372C183.764 120.703 184.072 121.141 184.254 121.684ZM188.407 127.79C187.923 127.79 187.484 127.698 187.089 127.516C186.695 127.331 186.382 127.064 186.15 126.716C185.918 126.364 185.802 125.94 185.802 125.443C185.802 125.005 185.888 124.651 186.06 124.379C186.233 124.104 186.463 123.889 186.751 123.733C187.04 123.577 187.358 123.461 187.706 123.385C188.057 123.305 188.41 123.242 188.765 123.196C189.229 123.136 189.605 123.091 189.893 123.062C190.185 123.028 190.397 122.974 190.53 122.898C190.666 122.821 190.734 122.689 190.734 122.5V122.46C190.734 121.969 190.599 121.588 190.331 121.317C190.066 121.045 189.663 120.909 189.123 120.909C188.563 120.909 188.124 121.032 187.805 121.277C187.487 121.522 187.263 121.784 187.134 122.062L186.021 121.665C186.219 121.201 186.485 120.839 186.816 120.581C187.151 120.319 187.515 120.137 187.91 120.034C188.308 119.928 188.699 119.875 189.083 119.875C189.328 119.875 189.61 119.905 189.928 119.964C190.25 120.021 190.56 120.138 190.858 120.317C191.16 120.496 191.41 120.766 191.609 121.128C191.808 121.489 191.907 121.973 191.907 122.579V127.611H190.734V126.577H190.674C190.594 126.742 190.462 126.92 190.276 127.108C190.091 127.297 189.844 127.458 189.536 127.591C189.227 127.723 188.851 127.79 188.407 127.79ZM188.586 126.736C189.05 126.736 189.441 126.644 189.759 126.462C190.081 126.28 190.323 126.045 190.485 125.756C190.651 125.468 190.734 125.165 190.734 124.846V123.773C190.684 123.832 190.575 123.887 190.406 123.937C190.24 123.983 190.048 124.024 189.829 124.061C189.613 124.094 189.403 124.124 189.197 124.15C188.995 124.174 188.831 124.193 188.705 124.21C188.4 124.25 188.115 124.314 187.85 124.404C187.588 124.49 187.376 124.621 187.214 124.797C187.055 124.969 186.975 125.204 186.975 125.503C186.975 125.91 187.126 126.219 187.428 126.427C187.732 126.633 188.119 126.736 188.586 126.736ZM197.986 127.611V119.974H199.119V121.167H199.219C199.378 120.76 199.635 120.443 199.99 120.218C200.344 119.989 200.77 119.875 201.267 119.875C201.771 119.875 202.19 119.989 202.525 120.218C202.863 120.443 203.127 120.76 203.316 121.167H203.395C203.591 120.773 203.884 120.46 204.275 120.228C204.666 119.992 205.135 119.875 205.682 119.875C206.365 119.875 206.923 120.089 207.357 120.516C207.792 120.94 208.009 121.602 208.009 122.5V127.611H206.835V122.5C206.835 121.936 206.681 121.534 206.373 121.292C206.065 121.05 205.702 120.929 205.284 120.929C204.747 120.929 204.331 121.091 204.036 121.416C203.741 121.737 203.594 122.145 203.594 122.639V127.611H202.401V122.38C202.401 121.946 202.26 121.597 201.978 121.331C201.696 121.063 201.334 120.929 200.889 120.929C200.584 120.929 200.299 121.01 200.034 121.172C199.772 121.335 199.56 121.56 199.398 121.849C199.239 122.134 199.159 122.463 199.159 122.838V127.611H197.986ZM210.154 127.611V119.974H211.327V127.611H210.154ZM210.751 118.702C210.522 118.702 210.325 118.624 210.159 118.468C209.997 118.312 209.915 118.125 209.915 117.906C209.915 117.687 209.997 117.5 210.159 117.344C210.325 117.188 210.522 117.111 210.751 117.111C210.979 117.111 211.175 117.188 211.337 117.344C211.503 117.5 211.586 117.687 211.586 117.906C211.586 118.125 211.503 118.312 211.337 118.468C211.175 118.624 210.979 118.702 210.751 118.702ZM218.885 121.684L217.831 121.983C217.765 121.807 217.667 121.636 217.538 121.471C217.412 121.302 217.24 121.162 217.021 121.053C216.802 120.944 216.522 120.889 216.181 120.889C215.713 120.889 215.324 120.997 215.012 121.212C214.704 121.424 214.55 121.694 214.55 122.023C214.55 122.314 214.656 122.545 214.868 122.714C215.08 122.883 215.412 123.023 215.863 123.136L216.996 123.415C217.679 123.58 218.188 123.834 218.522 124.175C218.857 124.513 219.025 124.949 219.025 125.483C219.025 125.92 218.899 126.311 218.647 126.656C218.398 127.001 218.05 127.273 217.603 127.471C217.155 127.67 216.635 127.77 216.042 127.77C215.263 127.77 214.618 127.601 214.108 127.263C213.597 126.925 213.274 126.431 213.138 125.781L214.252 125.503C214.358 125.914 214.558 126.222 214.853 126.427C215.152 126.633 215.541 126.736 216.022 126.736C216.569 126.736 217.003 126.62 217.324 126.388C217.649 126.152 217.811 125.871 217.811 125.542C217.811 125.277 217.719 125.055 217.533 124.876C217.347 124.694 217.062 124.558 216.678 124.469L215.405 124.17C214.706 124.005 214.192 123.748 213.864 123.4C213.539 123.048 213.377 122.609 213.377 122.082C213.377 121.651 213.498 121.27 213.74 120.939C213.985 120.607 214.318 120.347 214.739 120.158C215.163 119.969 215.644 119.875 216.181 119.875C216.936 119.875 217.53 120.041 217.961 120.372C218.395 120.703 218.703 121.141 218.885 121.684ZM226.2 121.684L225.146 121.983C225.079 121.807 224.982 121.636 224.852 121.471C224.727 121.302 224.554 121.162 224.335 121.053C224.117 120.944 223.837 120.889 223.495 120.889C223.028 120.889 222.638 120.997 222.327 121.212C222.019 121.424 221.865 121.694 221.865 122.023C221.865 122.314 221.971 122.545 222.183 122.714C222.395 122.883 222.726 123.023 223.177 123.136L224.311 123.415C224.993 123.58 225.502 123.834 225.837 124.175C226.172 124.513 226.339 124.949 226.339 125.483C226.339 125.92 226.213 126.311 225.961 126.656C225.713 127.001 225.365 127.273 224.917 127.471C224.47 127.67 223.949 127.77 223.356 127.77C222.577 127.77 221.932 127.601 221.422 127.263C220.912 126.925 220.588 126.431 220.453 125.781L221.566 125.503C221.672 125.914 221.873 126.222 222.168 126.427C222.466 126.633 222.856 126.736 223.336 126.736C223.883 126.736 224.317 126.62 224.639 126.388C224.963 126.152 225.126 125.871 225.126 125.542C225.126 125.277 225.033 125.055 224.847 124.876C224.662 124.694 224.377 124.558 223.992 124.469L222.72 124.17C222.02 124.005 221.507 123.748 221.178 123.4C220.854 123.048 220.691 122.609 220.691 122.082C220.691 121.651 220.812 121.27 221.054 120.939C221.299 120.607 221.633 120.347 222.053 120.158C222.478 119.969 222.958 119.875 223.495 119.875C224.251 119.875 224.844 120.041 225.275 120.372C225.709 120.703 226.017 121.141 226.2 121.684ZM230.352 127.79C229.868 127.79 229.429 127.698 229.035 127.516C228.64 127.331 228.327 127.064 228.095 126.716C227.863 126.364 227.747 125.94 227.747 125.443C227.747 125.005 227.833 124.651 228.006 124.379C228.178 124.104 228.408 123.889 228.697 123.733C228.985 123.577 229.303 123.461 229.651 123.385C230.003 123.305 230.356 123.242 230.71 123.196C231.174 123.136 231.55 123.091 231.839 123.062C232.13 123.028 232.343 122.974 232.475 122.898C232.611 122.821 232.679 122.689 232.679 122.5V122.46C232.679 121.969 232.545 121.588 232.276 121.317C232.011 121.045 231.608 120.909 231.068 120.909C230.508 120.909 230.069 121.032 229.751 121.277C229.433 121.522 229.209 121.784 229.08 122.062L227.966 121.665C228.165 121.201 228.43 120.839 228.761 120.581C229.096 120.319 229.461 120.137 229.855 120.034C230.253 119.928 230.644 119.875 231.028 119.875C231.274 119.875 231.555 119.905 231.874 119.964C232.195 120.021 232.505 120.138 232.803 120.317C233.105 120.496 233.355 120.766 233.554 121.128C233.753 121.489 233.852 121.973 233.852 122.579V127.611H232.679V126.577H232.619C232.54 126.742 232.407 126.92 232.222 127.108C232.036 127.297 231.789 127.458 231.481 127.591C231.173 127.723 230.796 127.79 230.352 127.79ZM230.531 126.736C230.995 126.736 231.386 126.644 231.705 126.462C232.026 126.28 232.268 126.045 232.43 125.756C232.596 125.468 232.679 125.165 232.679 124.846V123.773C232.629 123.832 232.52 123.887 232.351 123.937C232.185 123.983 231.993 124.024 231.774 124.061C231.559 124.094 231.348 124.124 231.143 124.15C230.941 124.174 230.777 124.193 230.651 124.21C230.346 124.25 230.061 124.314 229.795 124.404C229.534 124.49 229.321 124.621 229.159 124.797C229 124.969 228.92 125.204 228.92 125.503C228.92 125.91 229.071 126.219 229.373 126.427C229.678 126.633 230.064 126.736 230.531 126.736ZM229.577 119.059L228.662 119.02C228.662 118.513 228.806 118.098 229.094 117.777C229.386 117.452 229.746 117.29 230.173 117.29C230.362 117.29 230.53 117.323 230.675 117.389C230.821 117.452 230.96 117.525 231.093 117.608C231.226 117.691 231.362 117.765 231.501 117.831C231.643 117.894 231.804 117.926 231.983 117.926C232.172 117.926 232.331 117.853 232.46 117.707C232.593 117.558 232.659 117.379 232.659 117.17L233.554 117.25C233.554 117.767 233.408 118.178 233.116 118.483C232.828 118.788 232.47 118.94 232.043 118.94C231.814 118.94 231.625 118.909 231.476 118.846C231.327 118.779 231.194 118.705 231.078 118.622C230.962 118.539 230.839 118.466 230.71 118.403C230.581 118.337 230.422 118.304 230.233 118.304C230.044 118.304 229.887 118.378 229.761 118.527C229.638 118.673 229.577 118.851 229.577 119.059ZM239.096 127.77C238.407 127.77 237.802 127.606 237.281 127.277C236.764 126.949 236.36 126.49 236.068 125.9C235.78 125.31 235.636 124.621 235.636 123.832C235.636 123.037 235.78 122.342 236.068 121.749C236.36 121.156 236.764 120.695 237.281 120.367C237.802 120.039 238.407 119.875 239.096 119.875C239.785 119.875 240.389 120.039 240.906 120.367C241.426 120.695 241.83 121.156 242.119 121.749C242.41 122.342 242.556 123.037 242.556 123.832C242.556 124.621 242.41 125.31 242.119 125.9C241.83 126.49 241.426 126.949 240.906 127.277C240.389 127.606 239.785 127.77 239.096 127.77ZM239.096 126.716C239.62 126.716 240.051 126.581 240.389 126.313C240.727 126.045 240.977 125.692 241.139 125.254C241.302 124.817 241.383 124.343 241.383 123.832C241.383 123.322 241.302 122.846 241.139 122.405C240.977 121.965 240.727 121.608 240.389 121.336C240.051 121.065 239.62 120.929 239.096 120.929C238.572 120.929 238.142 121.065 237.803 121.336C237.465 121.608 237.215 121.965 237.053 122.405C236.89 122.846 236.809 123.322 236.809 123.832C236.809 124.343 236.89 124.817 237.053 125.254C237.215 125.692 237.465 126.045 237.803 126.313C238.142 126.581 238.572 126.716 239.096 126.716ZM245.202 127.69C244.957 127.69 244.747 127.602 244.571 127.427C244.395 127.251 244.308 127.041 244.308 126.795C244.308 126.55 244.395 126.34 244.571 126.164C244.747 125.988 244.957 125.9 245.202 125.9C245.448 125.9 245.658 125.988 245.834 126.164C246.009 126.34 246.097 126.55 246.097 126.795C246.097 126.958 246.056 127.107 245.973 127.243C245.893 127.379 245.786 127.488 245.65 127.571C245.517 127.65 245.368 127.69 245.202 127.69Z" fill="white"/>
</svg>
